<svg xmlns="http://www.w3.org/2000/svg" width="90.695" height="30" viewBox="0 0 90.695 30">
  <g id="Prex_Color" transform="translate(0)">
    <path id="Trazado_2415" data-name="Trazado 2415" d="M358.624,238.036a4.878,4.878,0,1,0,0-9.748h-6.607v9.748Zm-12.8-15.229h12.8c6.916,0,11.455,4.448,11.455,10.423s-4.538,10.288-11.455,10.288h-6.607v8.829h-6.2Z" transform="translate(-345.817 -222.807)" fill="#0f0927"/>
    <path id="Trazado_2416" data-name="Trazado 2416" d="M363.594,237.9c0-12.128,11.1-11.772,15.229-10.739l-.719,5.481c-4.986-1.527-8.67.674-8.67,4.76v12.982h-5.84Z" transform="translate(-336.864 -220.847)" fill="#0f0927"/>
    <path id="Trazado_2417" data-name="Trazado 2417" d="M392.136,236.382a6.2,6.2,0,0,0-11.994,0Zm-6.021-9.612a11.882,11.882,0,0,1,11.949,14.061h-18.01a6.32,6.32,0,0,0,6.468,4.941,6.616,6.616,0,0,0,5.931-3.365l4.807,2.156a12.181,12.181,0,0,1-10.916,6.245,12.022,12.022,0,1,1-.226-24.033" transform="translate(-331.628 -220.811)" fill="#0f0927"/>
    <path id="Trazado_2418" data-name="Trazado 2418" d="M398.715,238.749l-8.446-11.68h7.189l4.851,7.008,4.988-7.008h6.828l-8.446,11.455,8.446,11.68h-7.187l-4.9-7.052-4.986,7.052h-6.784Z" transform="translate(-323.43 -220.662)" fill="#0f0927"/>
    <path id="Trazado_2419" data-name="Trazado 2419" d="M414.124,227.069H407.3L390.27,250.2h6.879Z" transform="translate(-323.429 -220.66)" fill="#5c19ae"/>
  </g>
</svg>
