<svg xmlns="http://www.w3.org/2000/svg" width="50" height="50" viewBox="0 0 50 50">
  <g id="instagram" transform="translate(-265 -1330)">
    <circle id="Elipse_3" data-name="Elipse 3" cx="25" cy="25" r="25" transform="translate(265 1330)" fill="#5c19ae"/>
    <g id="icon_instagram_prexargentina_footer" transform="translate(279.011 1344.011)">
      <path id="Trazado_1" data-name="Trazado 1" d="M21,16.7a5.6,5.6,0,1,0,5.6,5.6A5.6,5.6,0,0,0,21,16.7Zm0,9.183A3.586,3.586,0,1,1,24.583,22.3,3.586,3.586,0,0,1,21,25.883Z" transform="translate(-10.153 -11.496)" fill="#fff"/>
      <circle id="Elipse_1" data-name="Elipse 1" cx="1.268" cy="1.268" r="1.268" transform="translate(15.392 3.804)" fill="#fff"/>
      <path id="Trazado_2" data-name="Trazado 2" d="M23.34,6.593A6.228,6.228,0,0,0,18.748,4.8H9.74A5.99,5.99,0,0,0,3.4,11.14V20.1a6.292,6.292,0,0,0,1.837,4.679,6.381,6.381,0,0,0,4.548,1.7H18.7a6.457,6.457,0,0,0,4.6-1.7,6.26,6.26,0,0,0,1.793-4.635V11.14A6.268,6.268,0,0,0,23.34,6.593Zm-.175,13.556A4.273,4.273,0,0,1,21.9,23.34a4.52,4.52,0,0,1-3.2,1.137H9.784A4.52,4.52,0,0,1,6.592,23.34,4.4,4.4,0,0,1,5.411,20.1V11.14A4.359,4.359,0,0,1,6.592,7.948,4.447,4.447,0,0,1,9.784,6.811h9.008a4.359,4.359,0,0,1,3.192,1.181,4.512,4.512,0,0,1,1.181,3.148v9.008Z" transform="translate(-3.4 -4.8)" fill="#fff"/>
    </g>
  </g>
</svg>
