 <svg xmlns="http://www.w3.org/2000/svg" width="50" height="50" viewBox="0 0 50 50">
  <g id="twitter" transform="translate(-373 -1330)">
    <circle id="Elipse_4" data-name="Elipse 4" cx="25" cy="25" r="25" transform="translate(373 1330)" fill="#5c19ae"/>
    <path id="icon_twitter_prexargentina_footer" d="M25.688,12.453a9.027,9.027,0,0,1-2.606.714,4.545,4.545,0,0,0,2-2.51,9.082,9.082,0,0,1-2.881,1.1,4.541,4.541,0,0,0-7.73,4.138,12.882,12.882,0,0,1-9.352-4.74,4.543,4.543,0,0,0,1.4,6.057,4.524,4.524,0,0,1-2.055-.568q0,.028,0,.057A4.54,4.54,0,0,0,8.1,21.152a4.562,4.562,0,0,1-1.2.159,4.5,4.5,0,0,1-.854-.082,4.542,4.542,0,0,0,4.238,3.151,9.155,9.155,0,0,1-6.717,1.879A12.9,12.9,0,0,0,23.43,15.389q0-.295-.013-.588a9.189,9.189,0,0,0,2.271-2.348Z" transform="translate(383.433 1335.671)" fill="#fff"/>
  </g>
</svg>
