<svg xmlns="http://www.w3.org/2000/svg" width="91.662" height="96.595" viewBox="0 0 91.662 96.595">
  <g id="usos-prex_cambio-de-moneda-comprar-dolares" transform="translate(-6.089 0.264)">
    <g id="exchange" transform="translate(6.379)">
      <g id="Grupo_2541" data-name="Grupo 2541" transform="translate(3.034)">
        <g id="Grupo_2540" data-name="Grupo 2540">
          <path id="Trazado_4021" data-name="Trazado 4021" d="M51.4,10.6c-.977-1.256-1.781-2.163-1.922-2.321a25.9,25.9,0,0,0-43.5,9.272,1.541,1.541,0,1,0,2.917.994A22.848,22.848,0,1,1,7.68,25.912c0-.455.014-.915.04-1.368a1.541,1.541,0,1,0-3.076-.181c-.03.513-.046,1.034-.046,1.549a25.832,25.832,0,0,0,7.6,18.321,25.165,25.165,0,0,0,2.25,2A25.9,25.9,0,0,0,51.4,10.6Z" transform="translate(-4.598)" fill="#5c19ae" stroke="#5c19ae" stroke-width="0.5"/>
        </g>
      </g>
      <g id="Grupo_2602" data-name="Grupo 2602" transform="translate(38.963 44.26)">
        <g id="Grupo_2540-2" data-name="Grupo 2540">
          <path id="Trazado_4021-2" data-name="Trazado 4021" d="M51.4,10.6c-.977-1.256-1.781-2.163-1.922-2.321a25.9,25.9,0,0,0-43.5,9.272,1.541,1.541,0,1,0,2.917.994A22.848,22.848,0,1,1,7.68,25.912c0-.455.014-.915.04-1.368a1.541,1.541,0,1,0-3.076-.181c-.03.513-.046,1.034-.046,1.549a25.832,25.832,0,0,0,7.6,18.321,25.165,25.165,0,0,0,2.25,2A25.9,25.9,0,0,0,51.4,10.6Z" transform="translate(-4.598)" fill="#5c19ae" stroke="#5c19ae" stroke-width="0.5"/>
        </g>
      </g>
      <g id="Grupo_2599" data-name="Grupo 2599" transform="translate(61.355 6.547)">
        <g id="Grupo_2598" data-name="Grupo 2598">
          <path id="Trazado_4050" data-name="Trazado 4050" d="M320.262,116.464a1.541,1.541,0,0,0-2.109.549l-1,1.711A35.22,35.22,0,0,0,293.27,97.818a1.541,1.541,0,1,0-.767,2.984,32.142,32.142,0,0,1,21.855,19.237l-2.407-1.413a1.541,1.541,0,1,0-1.56,2.657l5.237,3.075a1.54,1.54,0,0,0,2.109-.549l3.075-5.237A1.541,1.541,0,0,0,320.262,116.464Z" transform="translate(-291.345 -97.769)" fill="#5c19ae" stroke="#5c19ae" stroke-width="0.5"/>
        </g>
      </g>
      <g id="Grupo_2601" data-name="Grupo 2601" transform="translate(0 56.734)">
        <g id="Grupo_2600" data-name="Grupo 2600">
          <path id="Trazado_4051" data-name="Trazado 4051" d="M112.132,307.538A32.143,32.143,0,0,1,90.277,288.3l2.407,1.413a1.541,1.541,0,0,0,1.56-2.658l-5.237-3.075a1.54,1.54,0,0,0-2.109.549l-3.075,5.237a1.541,1.541,0,1,0,2.657,1.56l1-1.711a35.221,35.221,0,0,0,23.878,20.906,1.541,1.541,0,1,0,.767-2.984Z" transform="translate(-83.612 -283.771)" fill="#5c19ae" stroke="#5c19ae" stroke-width="0.5"/>
        </g>
      </g>
      <g id="Grupo_2816" data-name="Grupo 2816" transform="translate(-605.409 -387.08)">
        <path id="Trazado_4428" data-name="Trazado 4428" d="M639.6,420.043a6.942,6.942,0,0,1-3.864,1.848v1.473a1.582,1.582,0,0,1-2.662,1.124,1.5,1.5,0,0,1-.439-1.124v-1.4a11.478,11.478,0,0,1-2.753-.594,9.164,9.164,0,0,1-2.339-1.189,1.554,1.554,0,0,1-.582-.581,1.905,1.905,0,0,1,.233-1.952,1.167,1.167,0,0,1,.917-.491,2.6,2.6,0,0,1,1.215.414,10.484,10.484,0,0,0,2.262,1.021,7.7,7.7,0,0,0,2.236.323,4.106,4.106,0,0,0,2.378-.582,1.89,1.89,0,0,0,.827-1.641,1.339,1.339,0,0,0-.478-1.06,3.441,3.441,0,0,0-1.176-.646q-.7-.233-2.016-.6a26.994,26.994,0,0,1-3.153-.982,5.306,5.306,0,0,1-2.133-1.551,4.273,4.273,0,0,1-.892-2.843,4.921,4.921,0,0,1,1.486-3.593,6.977,6.977,0,0,1,3.89-1.913v-1.473a1.5,1.5,0,0,1,.439-1.124,1.545,1.545,0,0,1,2.662,1.124v1.422a9.689,9.689,0,0,1,4.368,1.758,1.58,1.58,0,0,1,.556.6,1.775,1.775,0,0,1,.168.8,1.746,1.746,0,0,1-.4,1.137,1.167,1.167,0,0,1-.918.491,1.75,1.75,0,0,1-.53-.078,3.658,3.658,0,0,1-.685-.336,11.9,11.9,0,0,0-1.9-1.008,5.55,5.55,0,0,0-2.055-.336,3.679,3.679,0,0,0-2.236.62,1.955,1.955,0,0,0-.84,1.654,1.524,1.524,0,0,0,.491,1.176,3.468,3.468,0,0,0,1.241.711q.749.259,2.094.594a24.368,24.368,0,0,1,3.089.943,5.107,5.107,0,0,1,2.068,1.525,4.263,4.263,0,0,1,.866,2.8A4.8,4.8,0,0,1,639.6,420.043Z" fill="#5c19ae"/>
      </g>
      <g id="Grupo_2819" data-name="Grupo 2819" transform="translate(-1023.638 -803.155)">
        <path id="Trazado_4435" data-name="Trazado 4435" d="M1073.33,892.334a5.486,5.486,0,0,1-1.428-4.1v-5.8a1.618,1.618,0,1,1,3.233,0v5.927a3.207,3.207,0,0,0,.611,2.1,2.471,2.471,0,0,0,3.52,0,3.21,3.21,0,0,0,.611-2.1v-5.927a1.515,1.515,0,0,1,1.616-1.616,1.621,1.621,0,0,1,1.185.44,1.573,1.573,0,0,1,.449,1.176v5.8a5.451,5.451,0,0,1-1.446,4.086,6.905,6.905,0,0,1-8.351.009Z" transform="translate(0 -14.267)" fill="#5c19ae"/>
        <path id="Trazado_4436" data-name="Trazado 4436" d="M1180.81,878a4.925,4.925,0,0,1-2.685,1.347v.88a1.2,1.2,0,0,1-.35.9,1.376,1.376,0,0,1-1.814,0,1.2,1.2,0,0,1-.35-.9v-.808a8.066,8.066,0,0,1-3.412-1.167,1.22,1.22,0,0,1-.458-.449,1.413,1.413,0,0,1-.135-.665,1.454,1.454,0,0,1,.314-.934.93.93,0,0,1,.745-.4,1.361,1.361,0,0,1,.431.072,3.256,3.256,0,0,1,.557.269,6.63,6.63,0,0,0,1.473.611,5.682,5.682,0,0,0,1.455.18,2.713,2.713,0,0,0,1.446-.314,1.043,1.043,0,0,0,.494-.943.765.765,0,0,0-.3-.62,2.256,2.256,0,0,0-.736-.386q-.44-.144-1.284-.359a17.307,17.307,0,0,1-2.209-.692,3.8,3.8,0,0,1-1.491-1.1,3,3,0,0,1-.629-2,3.506,3.506,0,0,1,1.006-2.5,4.928,4.928,0,0,1,2.658-1.4v-.9a1.187,1.187,0,0,1,.359-.889,1.351,1.351,0,0,1,1.805-.009,1.2,1.2,0,0,1,.35.9v.844a7.629,7.629,0,0,1,2.91,1.131,1.32,1.32,0,0,1,.458.476,1.372,1.372,0,0,1,.135.638,1.43,1.43,0,0,1-.323.934.954.954,0,0,1-.754.4,1.2,1.2,0,0,1-.413-.072,5.137,5.137,0,0,1-.575-.269q-.126-.072-.557-.3a4.646,4.646,0,0,0-.925-.359,3.976,3.976,0,0,0-1.051-.135,2.247,2.247,0,0,0-1.311.35,1.093,1.093,0,0,0-.5.943.92.92,0,0,0,.575.862,8.761,8.761,0,0,0,1.814.575,15.212,15.212,0,0,1,2.182.647,3.638,3.638,0,0,1,1.473,1.1,3.1,3.1,0,0,1,.62,2.029A3.422,3.422,0,0,1,1180.81,878Z" transform="translate(-87.09)" fill="#5c19ae"/>
        <path id="Trazado_4437" data-name="Trazado 4437" d="M1262.1,892.925a6.11,6.11,0,0,1-2.02-.871,1.548,1.548,0,0,1-.44-.485,1.364,1.364,0,0,1-.135-.647,1.43,1.43,0,0,1,.323-.934.955.955,0,0,1,.754-.4,1.418,1.418,0,0,1,.449.072,2.8,2.8,0,0,1,.539.27,5.852,5.852,0,0,0,1.464.593,6.862,6.862,0,0,0,1.643.18,3.29,3.29,0,0,0,1.607-.314,1.006,1.006,0,0,0,.548-.925.843.843,0,0,0-.512-.709,7.231,7.231,0,0,0-1.948-.584,11.321,11.321,0,0,1-2.784-.9,3.3,3.3,0,0,1-1.41-1.23,3.413,3.413,0,0,1-.4-1.715,3.447,3.447,0,0,1,.682-2.083,4.547,4.547,0,0,1,1.877-1.464,6.556,6.556,0,0,1,2.685-.53,8.66,8.66,0,0,1,2.335.287,5.869,5.869,0,0,1,1.868.9,1.464,1.464,0,0,1,.458.494,1.375,1.375,0,0,1,.135.638,1.459,1.459,0,0,1-.314.934.93.93,0,0,1-.746.4,1.4,1.4,0,0,1-.431-.063,2.927,2.927,0,0,1-.557-.278q-.09-.054-.512-.278a4.153,4.153,0,0,0-.988-.359,5.312,5.312,0,0,0-1.23-.135,2.733,2.733,0,0,0-1.473.35,1.054,1.054,0,0,0-.557.925.793.793,0,0,0,.2.557,2,2,0,0,0,.737.422,10.742,10.742,0,0,0,1.6.422,10.731,10.731,0,0,1,2.712.907,3.468,3.468,0,0,1,1.4,1.23,3.2,3.2,0,0,1,.413,1.652,3.447,3.447,0,0,1-.664,2.092,4.252,4.252,0,0,1-1.859,1.4,7.22,7.22,0,0,1-2.775.494A10.759,10.759,0,0,1,1262.1,892.925Z" transform="translate(-163.881 -13.771)" fill="#5c19ae"/>
      </g>
    </g>
  </g>
</svg>
