<svg xmlns="http://www.w3.org/2000/svg" width="95.269" height="94.215" viewBox="0 0 95.269 94.215">
  <g id="usos-prex_compras-online" transform="translate(0.003)">
    <path id="Sustracci贸n_11" data-name="Sustracci贸n 11" d="M30.153,71.745H1.776A1.777,1.777,0,0,1,0,69.873l.481-8.929H4.04l-.39,7.248h26.5a1.776,1.776,0,1,1,0,3.552ZM57.628,50.558a1.776,1.776,0,0,1-1.774-1.68L53.772,3.552H7.129L4.895,45.067H1.338L3.673,1.68A1.776,1.776,0,0,1,5.447,0H55.455a1.775,1.775,0,0,1,1.773,1.68L59.4,48.686a1.779,1.779,0,0,1-1.678,1.869Z" fill="#5c19ae"/>
    <path id="Trazado_4001" data-name="Trazado 4001" d="M65.758,61.035a1.776,1.776,0,0,0-1.776,1.776v8.317a14.563,14.563,0,0,0,29.126,0V62.811a1.776,1.776,0,0,0-3.552,0v8.317a11.011,11.011,0,1,1-22.022,0V62.811a1.776,1.776,0,0,0-1.776-1.776Z" transform="translate(-48.831 -49.55)" fill="#5c19ae"/>
    <path id="Sustracci贸n_10" data-name="Sustracci贸n 10" d="M59.314,68.194H1.776A1.778,1.778,0,0,1,0,66.418V31.255a1.778,1.778,0,0,1,1.776-1.776h29.1l1.04-19.628A1.776,1.776,0,0,1,33.69,8.169h2.322V6.359a6.359,6.359,0,1,1,12.718,0v1.81h2.842a1.775,1.775,0,0,1,1.773,1.682L54.387,29.48h4.929a1.775,1.775,0,0,1,1.775,1.776V47.137H57.538V41.911H3.552V64.642H57.538V61.793H61.09v4.625a1.778,1.778,0,0,1-1.776,1.776ZM3.552,33.031v5.328H57.539V33.031Zm31.821-21.31L34.43,29.479h16.4l-.943-17.758Zm7-8.169a2.81,2.81,0,0,0-2.807,2.807v1.81H45.18V6.359a2.81,2.81,0,0,0-2.81-2.807Z" transform="translate(34.175 26.021)" fill="#5c19ae"/>
    <g id="Grupo_2606" data-name="Grupo 2606" transform="translate(91.684 81.991) rotate(-90)">
      <g id="Grupo_2487" data-name="Grupo 2487">
        <path id="Trazado_3992" data-name="Trazado 3992" d="M15.013.033,1.98,0A1.891,1.891,0,0,0,0,1.789,1.891,1.891,0,0,0,1.98,3.577H15.123C15.152,2.566,15.013.033,15.013.033Z" fill="#5c19ae"/>
      </g>
    </g>
    <g id="Grupo_2622" data-name="Grupo 2622" transform="translate(95.261 85.184) rotate(90)">
      <g id="Grupo_2487-2" data-name="Grupo 2487">
        <path id="Trazado_3992-2" data-name="Trazado 3992" d="M6.464,3.544,1.98,3.577A1.891,1.891,0,0,1,0,1.789,1.891,1.891,0,0,1,1.98,0H6.574C6.6,1.011,6.464,3.544,6.464,3.544Z" fill="#5c19ae"/>
      </g>
    </g>
    <g id="Grupo_2623" data-name="Grupo 2623" transform="matrix(0.052, -0.999, 0.999, 0.052, 1.136, 47.696)">
      <g id="Grupo_2487-3" data-name="Grupo 2487">
        <path id="Trazado_3992-3" data-name="Trazado 3992" d="M8.2,3.568,2.046,3.7A1.955,1.955,0,0,1,0,1.849,1.955,1.955,0,0,1,2.046,0L6.909.075A13.321,13.321,0,0,0,8.2,3.568Z" fill="#5c19ae"/>
      </g>
    </g>
    <g id="Grupo_2624" data-name="Grupo 2624" transform="translate(4.653 51.916) rotate(93)">
      <g id="Grupo_2487-4" data-name="Grupo 2487">
        <path id="Trazado_3992-4" data-name="Trazado 3992" d="M11.26,3.665,2.046,3.7A1.955,1.955,0,0,1,0,1.849,1.955,1.955,0,0,1,2.046,0L9.969.173A13.321,13.321,0,0,0,11.26,3.665Z" fill="#5c19ae"/>
      </g>
    </g>
  </g>
</svg>
