<svg xmlns="http://www.w3.org/2000/svg" width="71.356" height="102.85" viewBox="0 0 71.356 102.85">
  <g id="usos-prex_compras-con-tarjeta" transform="translate(-78.65 0.25)">
    <g id="Grupo_2764" data-name="Grupo 2764" transform="translate(78.899)">
      <path id="Trazado_4237" data-name="Trazado 4237" d="M140.1,39.762a63.017,63.017,0,0,0-12.948-10.25V17.61a1.5,1.5,0,0,0-3,0V52.386c-1.778-2.546-3.53-6.1-8.45-6.283a8.274,8.274,0,0,0-7.027,12.988l7.808,11.18H83.97A2.077,2.077,0,0,1,81.9,68.2V5.071A2.077,2.077,0,0,1,83.97,3h38.113a2.077,2.077,0,0,1,2.075,2.075v7.543a1.5,1.5,0,0,0,3,0V5.071A5.078,5.078,0,0,0,122.084,0H83.971A5.077,5.077,0,0,0,78.9,5.071V68.2a5.077,5.077,0,0,0,5.072,5.071h27.5a37.279,37.279,0,0,0,4.221,12.4,29.164,29.164,0,0,1,3.131,13.4c.328,2.053,1.906,3.279,4.222,3.279H141.9c2.289-.019,4.053-1.908,3.694-4.671a68.449,68.449,0,0,1,2.927-29.956C151.585,58.418,148.674,48.75,140.1,39.762Zm5.571,27.022a71.516,71.516,0,0,0-3.054,31.268c.073.715-.03,1.267-.748,1.3H123.047c-1.553,0-1.2-.785-1.254-1.515-.324-11.972-5.837-14.758-7.291-24.569h4.081c1.425,2.04,1.633,2.62,2.612,2.62a1.5,1.5,0,0,0,1.227-2.357L111.138,57.374a5.267,5.267,0,0,1,7.793-6.973c.746.654.067-.171,12.127,17.1a1.5,1.5,0,1,0,2.457-1.716l-6.36-9.106V33.039c12.06,7.742,23.025,20.061,18.519,33.745Z" transform="translate(-78.899)" fill="#5c19ae" stroke="#5c19ae" stroke-width="0.5"/>
    </g>
    <g id="Elipse_97" data-name="Elipse 97" transform="translate(85.429 38.784) rotate(-90)" fill="none" stroke="#5c19ae" stroke-linecap="round" stroke-width="3">
      <circle cx="9.941" cy="9.941" r="9.941" stroke="none"/>
      <circle cx="9.941" cy="9.941" r="8.441" fill="none"/>
    </g>
    <g id="Elipse_98" data-name="Elipse 98" transform="translate(85.429 28.446) rotate(-90)" fill="none" stroke="#5c19ae" stroke-linecap="round" stroke-width="3">
      <circle cx="9.941" cy="9.941" r="9.941" stroke="none"/>
      <circle cx="9.941" cy="9.941" r="8.441" fill="none"/>
    </g>
  </g>
</svg>
